<?xml version="1.0" standalone="no"?><!DOCTYPE svg PUBLIC "-//W3C//DTD SVG 1.1//EN" "http://www.w3.org/Graphics/SVG/1.1/DTD/svg11.dtd"><svg t="1626596422848" class="icon" viewBox="0 0 1024 1024" version="1.1" xmlns="http://www.w3.org/2000/svg" p-id="5155" width="48" height="48" xmlns:xlink="http://www.w3.org/1999/xlink"><defs><style type="text/css"></style></defs><path d="M354.86894459 858.14658845l5.81247684-0.66021453c53.46443061-6.17494755 100.83158597-34.73246183 129.93280632-78.37134695l2.22660583-3.31401799-2.64085808-3.00332879c-43.71655743-49.9562319-66.82406558-111.11021985-66.82406558-176.83392789 0-41.85242231 9.89027239-98.95450548 27.84551823-160.78165333l0.5954876-2.07126124-1.03563061-1.87708049c-35.66452939-65.03760276-74.97965669-100.84453136-110.72185838-100.84453137-94.77314686 0-183.46196385 237.70311743-183.46196385 345.69350005 0 91.35556583 71.5232395 171.03439645 162.83996919 181.41659339l5.78658607 0.64726914" fill="#CCCCCC" p-id="5156"></path><path d="M705.39107239 831.94513383l5.64418686-0.47897916c123.74491339-10.48576 217.055232-111.74454361 217.06817739-235.54123852 0-138.64504889-114.83849008-443.83244642-237.52188207-443.83244642-88.18394706 0-166.77536553 150.8525448-207.30735882 280.17691812l-0.16828997 1.048576c-0.06472691 0.23301689-0.32363457 0.72494143-0.51781531 1.11330291-0.53076069 1.08741215-1.2686475 2.58907653-1.43693749 4.22019477-18.13648118 58.51312987-28.13031664 114.3724563-28.13031663 157.27345462 0 121.75132445 95.3427437 225.19787773 217.055232 235.51534775l5.64418685 0.47897916" fill="#CCCCCC" p-id="5157"></path><path d="M670.02428682 45.3060077c-128.8971757 0-216.20083675 215.74774835-239.87794173 281.87276327l-3.08100109 8.59573412-5.12637155-7.54715812c-40.94624553-60.33842883-84.81814755-92.23585185-126.83885986-92.23585186-137.67414518 0-228.88731181 286.36481106-228.88731179 402.44605787 0 118.50203339 89.37492227 215.96781985 207.88990103 226.73837827l4.22019476 0.37541611v83.52360928c0 10.35630617 6.4338552 16.79016139 16.777216 16.79016139s16.777216-6.4338552 16.777216-16.79016139v-83.48477314l4.194304-0.41425225c65.47774578-6.30440139 126.69646064-40.82973709 163.78498213-92.32646952l2.95154725-4.10368632 3.83183328 3.2881272c44.27320889 37.94291675 101.90605275 61.14104257 162.27037236 65.29651042l4.32375782 0.2977438v111.4597452c0 10.35630617 6.4338552 16.79016139 16.79016139 16.79016138s16.777216-6.4338552 16.777216-16.79016138v-111.4597452l4.31081243-0.31068918c148.94957353-10.6281592 265.62630795-135.62877472 265.62630795-284.57834824 0.01294539-151.3703601-121.06521917-507.4331117-286.71433638-507.43311171zM455.36395061 748.13672613c-30.99124622 46.46097857-81.40056652 76.85673718-138.3343597 83.4329916l-5.17815308 0.5954876V531.28862025c0-10.3433608-6.4338552-16.777216-16.777216-16.777216s-16.777216 6.4338552-16.777216 16.777216v150.4641833l-61.5035133-61.4905679c-6.17494755-6.49858213-17.30797669-6.40796445-23.34052503-0.07767229-3.32696336 3.17161876-5.13931694 7.43064969-5.13931693 11.80618903 0 4.38848475 1.81235358 8.62162489 4.98397234 11.63789908l84.99938292 84.9993829v103.52422558l-5.1652077-0.58254222c-97.20687882-11.05535683-173.36456533-95.89939517-173.36456533-193.14511012 0-115.22685155 94.43656691-368.86573511 195.33287979-368.86573511 37.87818983 0 79.65293985 38.13709748 117.62174736 107.394895l0.91912218 1.68289975-0.5307607 1.85118973c-19.23683872 66.21563259-29.82616178 127.39551131-29.82616178 172.23831705 0 70.53939042 24.80335328 136.15953541 71.70447487 189.76636522l2.34311428 2.67969423-1.96769819 2.96449265z m236.47330608 55.60041876l-5.03575387 0.42719763V537.90371082l89.23252305-87.05769877c3.21045491-3.0680557 5.03575387-7.31414124 5.03575388-11.67673522s-1.82529897-8.6086795-4.99691772-11.65084444c-6.35618291-6.64098133-17.35975822-6.49858213-23.44408811-0.14239921l-65.8272711 63.40648455V332.0203441c0-10.3433608-6.4338552-16.777216-16.777216-16.777216-10.35630617 0-16.79016139 6.4338552-16.79016139 16.777216v287.59462242l-110.76069452-110.77363991c-6.18789294-6.49858213-17.33386747-6.39501906-23.34052504-0.0776723-3.32696336 3.18456415-5.15226231 7.43064969-5.15226232 11.79324366s1.82529897 8.6086795 4.98397235 11.63789906L653.23412543 666.43841581v137.68709056l-5.03575388-0.42719762c-129.72568019-10.97768453-231.33398914-121.23350914-231.33398913-250.9980255 0-45.81370943 10.66699536-105.45308761 30.04623328-167.96634073 0.19418075-1.78646282 0.94501294-3.2881272 1.5016644-4.44026627 0.2200715-0.44014302 0.54370608-1.08741215 0.5954876-1.33337442l0.19418075-1.19097522c43.23757827-137.89421669 127.00714983-298.9218323 220.83528374-298.9218323 130.76131082 0 253.15990439 325.82233758 253.1599044 473.83984356-0.01294539 131.95228603-99.4723208 239.86499635-231.3598799 251.04980702z" p-id="5158"></path></svg>